<?xml version="1.0" encoding="UTF-8"?>
<svg id="Layer_1" xmlns="http://www.w3.org/2000/svg" version="1.1" viewBox="0 0 272.5 261.4">
  <path d="M14.9,1.1c0-.1-.2-.2-.3,0-2.3,6.2-21.7,61.8,13,96.4,36.8,36.8,47.6,43.1,54.4,50.9h-25.9c-.3,0-.4.4-.2.6,4.3,3.1,24.3,17.6,34,26.2.5.5,1.2.7,2,.7h38.7c.6,0,1-.5.9-1.1-16.3-49.5-42.6-56-86.9-100.4C31.2,60.1,18.3,46.4,14.9,1.1Z"/>
  <path d="M3.9,97.9c-3.4,25.2-15,77.3,52.4,103,5.4,2.1,10.3,5.1,14.6,9,14.7,13.2,42.3,39.2,53.4,50.2s.8,0,.7-.4c-4.2-10.8-27.2-67-50-75.1-22.2-8-27.9-6.4-36.5-14.2s-3.7-5.1-3.7-8.3v-32.7c0-.4-.2-.8-.5-1-3-2-17.8-12.5-28.2-30.9s-2.1-.7-2.2.4Z"/>
  <path d="M257.6,1.3c0-.1.2-.2.3,0,2.3,6.2,21.7,61.8-13,96.4-36.8,36.8-47.6,43.1-54.4,50.9h25.9c.3,0,.4.4.2.6-4.3,3.1-24.3,17.6-34,26.2-.5.5-1.2.7-2,.7h-38.7c-.6,0-1-.5-.9-1.1,16.3-49.5,42.6-56,86.9-100.4,13.4-14.3,26.2-28.1,29.6-73.3Z"/>
  <path d="M268.6,98c3.4,25.2,15,77.3-52.4,103-5.4,2.1-10.3,5.1-14.6,9-14.7,13.2-42.3,39.2-53.4,50.2-.3.3-.8,0-.7-.4,4.2-10.8,27.2-67,50-75.1,22.2-8,27.9-6.4,36.5-14.2,2.3-2.1,3.7-5.1,3.7-8.3v-32.7c0-.4.2-.8.5-1,3-2,17.8-12.5,28.2-30.9.6-1,2.1-.7,2.2.4Z"/>
  <path d="M134.6,188.7h-19c-1.2,0-2,1.4-1.2,2.4,4.7,6.6,17.6,24.9,19.9,31.8.1.3.6.3.7,0,2.3-6.9,15.2-25.2,19.9-31.8s0-2.4-1.2-2.4h-19Z"/>
  <path d="M210.4,55.9c-3.5-2.3-31.4-22.2-75.8-21.9-44.4-.3-72.3,19.6-75.8,21.9-1.7,1.1-.9,4,0,4.9,1.5,1.4,23,18.2,39.8,29.9,35.4,24.8,28.7,30,34.8,34,.6.4.9.4,1.2.4s.6,0,1.2-.4c6.1-4-.6-9.2,34.8-34,16.8-11.8,38.3-28.5,39.8-29.9.9-.9,1.7-3.8,0-4.9Z"/>
  <path d="M134.6,125c0,0,.1,0,.2,0"/>
 
  <path d="M82,148.4h-25.9c-.3,0-.4.4-.2.6,4.3,3.1,24.3,17.6,34,26.2.5.5,1.2.7,2,.7h38.7c.6,0,1-.5.9-1.1-16.3-49.5-42.6-56-86.9-100.4C31.2,60.1,18.3,46.4,14.9,1.1c0-.1-.2-.2-.3,0-2.3,6.2-21.7,61.8,13,96.4,36.8,36.8,47.6,43.1,54.4,50.9Z"/>
  <path d="M75.1,184.5c-22.2-8-27.9-6.4-36.5-14.2-2.3-2.1-3.7-5.1-3.7-8.3v-32.7c0-.4-.2-.8-.5-1-3-2-17.8-12.5-28.2-30.9-.6-1-2.1-.7-2.2.4-3.4,25.2-15,77.3,52.4,103,5.4,2.1,10.3,5.1,14.6,9,14.7,13.2,42.3,39.2,53.4,50.2.3.3.8,0,.7-.4-4.2-10.8-27.2-67-50-75.1Z"/>
  <path d="M141.1,175c-.1.6.3,1.1.9,1.1h38.7c.7,0,1.4-.3,2-.7,9.7-8.6,29.7-23.1,34-26.2.3-.2.1-.6-.2-.6h-25.9c6.8-7.8,17.6-14.1,54.4-50.9,34.7-34.7,15.3-90.2,13-96.4,0-.1-.3-.1-.3,0-3.4,45.2-16.3,59-29.6,73.3-44.3,44.3-70.6,50.9-86.9,100.4Z"/>
  <path d="M268.6,98c-.2-1.1-1.6-1.4-2.2-.4-10.4,18.4-25.2,28.9-28.2,30.9-.3.2-.5.6-.5,1v32.7c0,3.2-1.4,6.2-3.7,8.3-8.6,7.8-14.3,6.3-36.5,14.2-22.8,8.1-45.7,64.3-50,75.1-.2.4.4.7.7.4,11.2-11,38.8-37,53.4-50.2,4.3-3.9,9.2-7,14.6-9,67.4-25.8,55.8-77.8,52.4-103Z"/>
  <path d="M153.6,188.7h-38c-1.2,0-2,1.4-1.2,2.4,4.7,6.6,17.6,24.9,19.9,31.8.1.3.6.3.7,0,2.3-6.9,15.2-25.2,19.9-31.8.7-1,0-2.4-1.2-2.4Z"/>
  <path d="M98.6,90.7c35.4,24.8,28.7,30,34.8,34,.6.4.9.4,1.2.4s.1,0,.2,0c0,0-.1,0-.2,0,.3,0,.6,0,1.2-.4,6.1-4-.6-9.2,34.8-34,16.8-11.8,38.3-28.5,39.8-29.9.9-.9,1.7-3.8,0-4.9-3.5-2.3-31.4-22.2-75.8-21.9-44.4-.3-72.3,19.6-75.8,21.9-1.7,1.1-.9,4,0,4.9,1.5,1.4,23,18.2,39.8,29.9Z"/>
</svg>